<svg xmlns="http://www.w3.org/2000/svg" xmlns:xlink="http://www.w3.org/1999/xlink" width="67" height="67" viewBox="0 0 67 67"><defs><clipPath id="a"><rect width="35" height="35" transform="translate(0.256 0.256)" fill="#212121" stroke="#707070" stroke-width="1"/></clipPath></defs><g transform="translate(-28.5 -95)"><g transform="translate(28.833 95.333)"><g transform="translate(-0.333 -0.333)" fill="#fbc02d" stroke="#eceff1" stroke-width="1"><rect width="67" height="67" rx="16" stroke="none"/><rect x="0.5" y="0.5" width="66" height="66" rx="15.5" fill="none"/></g></g><g transform="translate(44.244 110.744)" clip-path="url(#a)"><g transform="translate(-0.335 -0.335)"><path d="M19.314,7.129a4.195,4.195,0,1,1-4.195,4.195,4.194,4.194,0,0,1,4.195-4.195m0,17.978c5.933,0,12.185,2.916,12.185,4.195v2.2H7.129V29.3c0-1.278,6.252-4.195,12.185-4.195m0-21.773a7.99,7.99,0,1,0,7.99,7.99A7.988,7.988,0,0,0,19.314,3.333Zm0,17.978c-5.333,0-15.98,2.677-15.98,7.99v5.993H35.294V29.3C35.294,23.988,24.647,21.311,19.314,21.311Z" transform="translate(-0.67 -0.67)" fill="#212121"/><path d="M0,0H35.512V35.512H0Z" fill="none"/></g></g></g></svg>