<svg xmlns="http://www.w3.org/2000/svg" xmlns:xlink="http://www.w3.org/1999/xlink" width="50" height="50" viewBox="0 0 50 50"><defs><clipPath id="a"><rect width="50" height="50" rx="10" transform="translate(30 859)" fill="#ffde8d"/></clipPath></defs><g transform="translate(-30 -859)" clip-path="url(#a)"><g transform="translate(-15.52 807.939)"><g transform="translate(60.813 77.017)"><g transform="translate(0 0)"><path d="M86.682,116.887c-.612-1.225-.245-4.043-.245-4.043l-3.431-.245-3.431.245s.368,2.818-.245,4.043-6.248,1.838-6.248,1.838a8.464,8.464,0,0,0,.98,3.431c.773,1.545,5.885,2.253,8.015,2.484a8.645,8.645,0,0,0,1.857,0c2.13-.231,7.243-.938,8.015-2.484a8.464,8.464,0,0,0,.98-3.431S87.295,118.112,86.682,116.887Z" transform="translate(-73.083 -112.599)" fill="#e7aa9e"/></g><g transform="translate(6.493 0)"><path d="M96.357,116.887c-.612-1.225-.245-4.043-.245-4.043l-3.431-.245-3.431.245a15.524,15.524,0,0,1,.108,1.927,9,9,0,0,0,5.043,2.988,15.459,15.459,0,0,0,4.382.294C97.629,117.761,96.6,117.372,96.357,116.887Z" transform="translate(-89.251 -112.599)" fill="#d9998d"/></g></g><g transform="translate(59.355 53.136)"><g transform="translate(0 14.956)"><path d="M72.441,91.658s-.8-1.831-2.309-1.114-.239,3.982,1.274,4.38,1.911-.318,1.752-1.354A5.619,5.619,0,0,0,72.441,91.658Z" transform="translate(-69.452 -90.377)" fill="#e7aa9e"/><g transform="translate(0.649 0.707)"><path d="M73.551,93.743s-1.184-2.174-2.195-1.463c-.729.512.151,2.087.172,1.721s-.516-1.141-.108-1.312,1.076.215.9.559-.387,1.119-.065,1.076.6-.258.6-.043-.388.258-.194.71,1.033.474,1.076-.129A2.549,2.549,0,0,0,73.551,93.743Z" transform="translate(-71.068 -92.138)" fill="#d9998d"/></g></g><g transform="translate(19.025 14.956)"><path d="M117.574,91.658s.8-1.831,2.309-1.114.239,3.982-1.274,4.38-1.911-.318-1.752-1.354A5.619,5.619,0,0,1,117.574,91.658Z" transform="translate(-116.825 -90.377)" fill="#e7aa9e"/><g transform="translate(0.479 0.707)"><path d="M118.216,93.743s1.184-2.174,2.195-1.463c.729.512-.151,2.087-.172,1.721s.516-1.141.108-1.312-1.076.215-.9.559.387,1.119.065,1.076-.6-.258-.6-.043.388.258.194.71-1.033.474-1.076-.129A2.549,2.549,0,0,1,118.216,93.743Z" transform="translate(-118.017 -92.138)" fill="#d9998d"/></g></g><g transform="translate(1.842 2.443)"><path d="M92.5,64.556c-1.752-5.336-8.919-5.336-8.919-5.336s-7.167,0-8.919,5.336c-1.343,4.092-.478,11.786,2.309,15.608a10.782,10.782,0,0,0,2.194,2.249,7.274,7.274,0,0,0,8.832,0,10.782,10.782,0,0,0,2.194-2.249C92.976,76.342,93.841,68.648,92.5,64.556Z" transform="translate(-74.038 -59.22)" fill="#eec0ae"/></g><path d="M99.844,66.486a6.957,6.957,0,0,0-3.607-4.041c-.043,1.386,0,2.361,0,2.361S99.649,70.571,96,78.69c-2.748,6.116-6.7,6.222-9.685,5.5.065.051.129.1.194.152a7.274,7.274,0,0,0,8.832,0,10.782,10.782,0,0,0,2.194-2.249C100.322,78.271,101.188,70.577,99.844,66.486Z" transform="translate(-79.543 -58.706)" fill="#e8b9aa"/><g transform="translate(11.17 14.508)"><path d="M97.523,95.09a.733.733,0,0,1-.135-.01.151.151,0,0,1-.119-.179.153.153,0,0,1,.178-.119,2.485,2.485,0,0,0,1.741-.7c.261-.359-.347-1.412-.79-2.18-.181-.314-.353-.611-.469-.858a1.428,1.428,0,0,1,.594-1.76.152.152,0,0,1,.169.252c-.035.024-.859.59-.488,1.378.111.235.279.527.457.835.565.98,1.15,1.992.773,2.511A2.749,2.749,0,0,1,97.523,95.09Z" transform="translate(-97.266 -89.26)" fill="#ae634d"/></g><g transform="translate(8.433 21.238)"><path d="M93.62,107.731a3.5,3.5,0,0,1-3.149-1.489.152.152,0,0,1,.265-.149c.044.078,1.125,1.9,4.348,1.154a.152.152,0,1,1,.069.3A6.809,6.809,0,0,1,93.62,107.731Z" transform="translate(-90.451 -106.016)" fill="#ae634d"/></g><g transform="translate(6.405 14.763)"><path d="M87.448,90.919A1.023,1.023,0,1,1,86.424,89.9,1.024,1.024,0,0,1,87.448,90.919Z" transform="translate(-85.401 -89.896)" fill="#402019"/></g><g transform="translate(14.431 14.763)"><path d="M107.433,90.919a1.024,1.024,0,1,1-1.024-1.023A1.024,1.024,0,0,1,107.433,90.919Z" transform="translate(-105.386 -89.896)" fill="#402019"/></g><circle cx="0.238" cy="0.238" r="0.238" transform="translate(7.502 15.804)" fill="#fff"/><circle cx="0.238" cy="0.238" r="0.238" transform="translate(15.507 15.731)" fill="#fff"/><g transform="translate(0.99 0)"><path d="M73.2,70.213s-1.568-4.527-1.237-7.838,2.053-5.166,3.245-5.5c0,0,0-2.782,3.511-3.577s7.683,1.523,10.2,1.788,3.709-1.59,3.842-.795a4.2,4.2,0,0,1-.729,2.848s1.457-.729,1.391-.133A3.444,3.444,0,0,1,92.1,59.13a11.643,11.643,0,0,1,.464,4.7,44.245,44.245,0,0,1-1.141,5.982s-.846-2.935-1.31-4.658a9.794,9.794,0,0,1-.2-3.51s-2.384-2.053-4.5-1.788-5.034,1.855-6.69,1.788-2.119-.6-2.119-.6.795,2.451-1.126,3.577S73.2,70.213,73.2,70.213Z" transform="translate(-71.917 -53.136)" fill="#402019"/></g><g transform="translate(5.173 12.705)"><path d="M85.693,85.429a2,2,0,0,0-1.96-.56,2.607,2.607,0,0,0-1.4,1.16A4.135,4.135,0,0,1,85.693,85.429Z" transform="translate(-82.333 -84.771)" fill="#402019"/></g><g transform="translate(14.092 12.705)"><path d="M104.541,85.429a2,2,0,0,1,1.96-.56,2.607,2.607,0,0,1,1.4,1.16A4.135,4.135,0,0,0,104.541,85.429Z" transform="translate(-104.541 -84.771)" fill="#402019"/></g></g><g transform="translate(52.578 81.313)"><path d="M88.9,143.543H52.578s.48-12.973,2.882-16.239c2.163-2.939,9.381-3.856,10.8-4.008a4.631,4.631,0,0,0,8.947,0c1.422.152,8.643,1.069,10.8,4.008C88.416,130.571,88.9,143.543,88.9,143.543Z" transform="translate(-52.578 -123.296)" fill="#84c1b7"/></g><g transform="translate(74.733 81.313)"><path d="M121.909,143.543s-.483-12.973-2.885-16.239c-2.161-2.939-9.381-3.856-10.8-4.008a4.073,4.073,0,0,1-.477,1.213,7.13,7.13,0,0,1,4.853,4.735c1.108,2.922.1,10.085-.408,14.3Z" transform="translate(-107.744 -123.296)" fill="#7cb5aa"/></g><g transform="translate(65.406 81.312)"><path d="M84.519,123.4a5.5,5.5,0,0,0,10.662,0c-.371-.051-.667-.086-.857-.106a4.632,4.632,0,0,1-8.949,0C85.186,123.312,84.89,123.347,84.519,123.4Z" transform="translate(-84.519 -123.292)" fill="#508375"/></g><g transform="translate(58.043 91.532)"><path d="M67.9,149.089a65.752,65.752,0,0,0-1.146,9.68h-.572a66.623,66.623,0,0,1,1.155-9.8.288.288,0,1,1,.563.121Z" transform="translate(-66.185 -148.74)" fill="#395b54"/><g transform="translate(23.664)"><path d="M126.833,158.769h-.574a65.649,65.649,0,0,0-1.147-9.68.288.288,0,1,1,.563-.121A66.7,66.7,0,0,1,126.833,158.769Z" transform="translate(-125.106 -148.74)" fill="#395b54"/></g></g><path d="M85.273,99.353a1.367,1.367,0,1,1-1.367-1.367A1.367,1.367,0,0,1,85.273,99.353Z" transform="translate(-17.929 -26.838)" fill="#e5ac9e"/><path d="M109.13,99.353a1.366,1.366,0,1,1-1.366-1.367A1.366,1.366,0,0,1,109.13,99.353Z" transform="translate(-32.204 -26.838)" fill="#e5ac9e"/></g></g></svg>